<svg width="82" height="33" viewBox="0 0 82 33" fill="none" xmlns="http://www.w3.org/2000/svg">
<path d="M31.254 24V9.832H38.426C39.8487 9.832 40.9047 10.1693 41.594 10.844C42.298 11.504 42.65 12.4427 42.65 13.66C42.65 14.4227 42.5033 15.0607 42.21 15.574C41.9167 16.0727 41.5207 16.4613 41.022 16.74C41.682 16.9453 42.2027 17.29 42.584 17.774C42.98 18.2433 43.178 18.94 43.178 19.864C43.178 21.228 42.7893 22.262 42.012 22.966C41.2493 23.6553 40.142 24 38.69 24H31.254ZM34.224 15.706H37.876C38.5947 15.706 39.108 15.552 39.416 15.244C39.724 14.9213 39.878 14.474 39.878 13.902C39.878 13.2713 39.7167 12.802 39.394 12.494C39.086 12.186 38.5067 12.032 37.656 12.032H34.224V15.706ZM34.224 21.822H37.986C38.734 21.822 39.284 21.668 39.636 21.36C39.988 21.052 40.164 20.5093 40.164 19.732C40.164 19.1013 39.988 18.632 39.636 18.324C39.2987 18.016 38.6827 17.862 37.788 17.862H34.224V21.822ZM48.5183 24.22C47.8583 24.22 47.2423 24.1027 46.6703 23.868C46.113 23.6187 45.6583 23.2593 45.3063 22.79C44.969 22.306 44.8003 21.7047 44.8003 20.986C44.8003 19.9593 45.1597 19.138 45.8783 18.522C46.6117 17.906 47.6897 17.598 49.1123 17.598H52.1923V17.312C52.1923 16.6667 52.009 16.212 51.6423 15.948C51.2903 15.684 50.5717 15.552 49.4863 15.552C48.2983 15.552 47.1543 15.7353 46.0543 16.102V14.012C46.5383 13.8213 47.125 13.6673 47.8143 13.55C48.5183 13.418 49.281 13.352 50.1023 13.352C51.6717 13.352 52.8817 13.6747 53.7323 14.32C54.5977 14.9507 55.0303 15.97 55.0303 17.378V24H52.4563L52.3023 23.054C51.8917 23.4207 51.3857 23.7067 50.7843 23.912C50.183 24.1173 49.4277 24.22 48.5183 24.22ZM49.3323 22.262C49.9923 22.262 50.5643 22.152 51.0483 21.932C51.5323 21.712 51.9137 21.4333 52.1923 21.096V19.446H49.1783C48.0197 19.446 47.4403 19.9227 47.4403 20.876C47.4403 21.8 48.071 22.262 49.3323 22.262ZM62.746 24.22C60.8833 24.22 59.4533 23.758 58.456 22.834C57.4733 21.91 56.982 20.5607 56.982 18.786C56.982 16.9527 57.51 15.5887 58.566 14.694C59.6366 13.7993 61.0593 13.352 62.834 13.352C63.5673 13.352 64.198 13.4033 64.726 13.506C65.254 13.6087 65.7673 13.7773 66.266 14.012V16.146C65.8993 15.97 65.474 15.8307 64.99 15.728C64.506 15.6253 63.9853 15.574 63.428 15.574C62.3133 15.574 61.4626 15.8087 60.876 16.278C60.2893 16.7327 59.996 17.5687 59.996 18.786C59.996 19.9007 60.26 20.7147 60.788 21.228C61.3306 21.7413 62.2033 21.998 63.406 21.998C63.9193 21.998 64.418 21.9467 64.902 21.844C65.4006 21.7413 65.8626 21.5873 66.288 21.382V23.582C65.3053 24.0073 64.1246 24.22 62.746 24.22ZM68.1642 24V9.172H71.1342V17.334L75.0282 13.572H78.4162L74.2142 17.84L78.6582 24H75.5122L72.3442 19.402L71.1342 20.568V24H68.1642Z" fill="#7E7E7E"/>
<path d="M20.5833 16.5H5.41663" stroke="#7E7E7E" stroke-width="2" stroke-linecap="round" stroke-linejoin="round"/>
<path d="M13 23.7916L5.41663 16.5L13 9.20831" stroke="#7E7E7E" stroke-width="2" stroke-linecap="round" stroke-linejoin="round"/>
</svg>
