<svg width="196" height="61" viewBox="0 0 196 61" fill="none" xmlns="http://www.w3.org/2000/svg">
<path fill-rule="evenodd" clip-rule="evenodd" d="M0.000780112 25.0826C0.000780112 19.6485 4.53861 15.5848 9.72818 15.5848C14.9177 15.5848 19.4556 19.6485 19.4556 25.0826C19.4556 30.5166 14.9177 34.5803 9.72818 34.5803C8.38672 34.5841 7.05613 34.3118 5.80317 33.7771L1.40882 34.5641C1.20429 34.6007 0.994752 34.5785 0.800088 34.4994C0.605424 34.4204 0.432087 34.2871 0.296521 34.1123C0.160956 33.9376 0.0676568 33.727 0.0254749 33.5007C-0.016707 33.2744 -0.00637295 33.0398 0.0554968 32.8192L1.02824 29.3416C0.356962 28.0471 0.00262446 26.5782 0.000780112 25.0826ZM9.72818 36.1638C8.58278 36.1638 7.47264 35.9969 6.42573 35.6875C8.19125 38.3292 11.2566 40.0076 14.5919 40.0076C15.9841 40.0076 17.3119 39.7227 18.5169 39.2044L22.9112 39.9914C23.1158 40.028 23.3253 40.0058 23.52 39.9267C23.7146 39.8477 23.888 39.7144 24.0235 39.5396C24.1591 39.3649 24.2524 39.1543 24.2946 38.928C24.3368 38.7017 24.3264 38.4671 24.2646 38.2465L23.2918 34.7689C23.9631 33.4744 24.3174 32.0055 24.3193 30.5099C24.3193 27.5628 22.9842 25.0188 20.9354 23.3078C21.0278 23.8831 21.0764 24.4747 21.0764 25.0826C21.0764 31.423 15.7835 36.1638 9.72818 36.1638Z" fill="black"/>
<path d="M61.6914 29.4948V37.6071C60.4896 38.7073 58.0563 39.2574 54.3916 39.2574C53.6722 39.2574 53.0374 39.2278 52.4873 39.1686C51.9456 39.1093 51.4463 39.0332 50.9893 38.9401C50.5407 38.847 50.1556 38.6904 49.834 38.4703C49.5124 38.2418 49.2288 38.0133 48.9834 37.7848C48.738 37.5563 48.5391 37.2262 48.3867 36.7946C48.2344 36.3545 48.1074 35.9313 48.0059 35.525C47.9128 35.1188 47.8408 34.5729 47.79 33.8873C47.7477 33.2018 47.7181 32.5459 47.7012 31.9196C47.6842 31.2933 47.6758 30.4892 47.6758 29.5074C47.6758 28.6696 47.68 27.9544 47.6885 27.3619C47.7054 26.7695 47.735 26.1643 47.7773 25.5465C47.8281 24.9287 47.8916 24.4166 47.9678 24.0104C48.0524 23.5957 48.1624 23.1809 48.2979 22.7662C48.4417 22.3431 48.6068 22.0045 48.793 21.7506C48.9792 21.4882 49.2119 21.2301 49.4912 20.9762C49.7705 20.7223 50.0794 20.5276 50.418 20.3922C50.765 20.2568 51.167 20.1341 51.624 20.024C52.0811 19.914 52.5804 19.8421 53.1221 19.8082C53.6637 19.7659 54.2773 19.7448 54.9629 19.7448C55.0052 19.7448 55.0687 19.7448 55.1533 19.7448C55.7458 19.7448 56.1943 19.749 56.499 19.7574C56.8037 19.7659 57.2142 19.7998 57.7305 19.859C58.2552 19.9098 58.6572 19.9944 58.9365 20.1129C59.2158 20.2229 59.5374 20.3922 59.9014 20.6207C60.2653 20.8408 60.5361 21.1158 60.7139 21.4459C60.8916 21.7675 61.0482 22.178 61.1836 22.6774C61.319 23.1767 61.3867 23.7522 61.3867 24.4039C61.3867 24.5563 61.3783 24.7679 61.3613 25.0387L59.0889 25.4703L58.9492 22.9694C58.9323 22.4277 58.6234 22.0807 58.0225 21.9283C57.4215 21.7675 56.2832 21.6871 54.6074 21.6871C53.4648 21.6871 52.6016 21.7591 52.0176 21.903C51.4336 22.0384 51.0273 22.25 50.7988 22.5377C50.5703 22.8255 50.4307 23.2529 50.3799 23.8199C50.3037 25.555 50.2656 27.3323 50.2656 29.152C50.2656 30.9801 50.3037 32.7574 50.3799 34.484C50.4222 35.3981 50.4941 35.9905 50.5957 36.2614C50.7565 36.6761 51.1247 36.9554 51.7002 37.0992C52.2419 37.2347 53.1855 37.3024 54.5312 37.3024C57.4258 37.3024 59.0296 37.1077 59.3428 36.7184C59.3343 35.8466 59.3301 34.0778 59.3301 31.4117H56.1309L55.915 29.4948H61.6914ZM75.5547 38.9528H73.5742L73.168 36.9596C72.9141 37.8313 72.4528 38.4153 71.7842 38.7115C71.124 38.9993 70.1549 39.1432 68.877 39.1432C68.0306 39.1432 67.3366 39.0628 66.7949 38.902C66.2533 38.7327 65.8216 38.4534 65.5 38.0641C65.1784 37.6748 64.9541 37.2008 64.8271 36.6422C64.7087 36.0752 64.6494 35.3473 64.6494 34.4586C64.6494 34.0608 64.7171 33.7054 64.8525 33.3922C64.9964 33.0791 65.1868 32.8125 65.4238 32.5924C65.6693 32.3724 65.9909 32.1819 66.3887 32.0211C66.7949 31.8603 67.2139 31.7334 67.6455 31.6403C68.0771 31.5472 68.5977 31.4752 69.207 31.4244C69.8249 31.3652 70.4258 31.3271 71.0098 31.3102C71.5938 31.2933 72.2751 31.2848 73.0537 31.2848V27.5143C73.0537 27.0826 72.8506 26.7864 72.4443 26.6256C72.0381 26.4563 71.3145 26.3717 70.2734 26.3717C69.5456 26.3717 68.9997 26.3886 68.6357 26.4225C68.2718 26.4563 67.9925 26.5579 67.7979 26.7272C67.6117 26.888 67.5016 27.0488 67.4678 27.2096C67.4424 27.3704 67.4255 27.6709 67.417 28.111C67.4085 28.2718 67.4043 28.3987 67.4043 28.4918L65.4619 28.4156C65.445 28.2802 65.4365 28.0813 65.4365 27.819C65.4365 27.2519 65.5169 26.7737 65.6777 26.3844C65.847 25.9866 66.0628 25.6777 66.3252 25.4576C66.5876 25.2291 66.9473 25.0514 67.4043 24.9244C67.8613 24.7975 68.3141 24.7171 68.7627 24.6832C69.2113 24.6494 69.7699 24.6324 70.4385 24.6324C71.4541 24.6324 72.2793 24.7128 72.9141 24.8737C73.5488 25.026 74.0693 25.3053 74.4756 25.7115C74.8818 26.1178 75.1611 26.6383 75.3135 27.2731C75.4743 27.8994 75.5547 28.7203 75.5547 29.736V38.9528ZM73.0537 34.9664V32.7955C71.3864 32.7955 70.1042 32.859 69.207 32.986C68.3099 33.1129 67.709 33.2906 67.4043 33.5192C67.1081 33.7392 66.96 34.0524 66.96 34.4586C66.96 34.4755 66.96 34.5009 66.96 34.5348C66.96 35.8212 67.0658 36.6211 67.2773 36.9342C67.4889 37.2474 68.1364 37.4039 69.2197 37.4039C70.1423 37.4039 70.8913 37.2939 71.4668 37.0739C72.0423 36.8538 72.4401 36.5745 72.6602 36.236C72.8887 35.889 73.0199 35.4658 73.0537 34.9664ZM82.0166 38.9528H79.5156V20.0875L82.0166 19.8844V38.9528ZM88.5928 38.9528H86.0918V20.0875L88.5928 19.8844V38.9528ZM103.484 31.7926C102.469 31.8942 101.838 31.9534 101.593 31.9703H94.6738C94.6823 33.1976 94.7161 34.5433 94.7754 36.0074C94.8177 36.5745 95.0589 36.9511 95.499 37.1373C95.9476 37.3151 96.8151 37.4039 98.1016 37.4039C98.584 37.4039 98.9987 37.387 99.3457 37.3531C99.6927 37.3108 99.972 37.2431 100.184 37.15C100.404 37.0485 100.573 36.9554 100.691 36.8707C100.818 36.7776 100.911 36.638 100.971 36.4518C101.03 36.2571 101.068 36.0963 101.085 35.9694C101.102 35.8339 101.119 35.6351 101.136 35.3727C101.153 35.1018 101.174 34.8818 101.199 34.7125L103.142 35.068C103.125 35.6604 103.082 36.164 103.015 36.5787C102.947 36.985 102.833 37.3447 102.672 37.6578C102.511 37.971 102.321 38.2207 102.101 38.4069C101.881 38.5846 101.584 38.7327 101.212 38.8512C100.84 38.9697 100.429 39.0459 99.9805 39.0797C99.5319 39.122 98.9775 39.1432 98.3174 39.1432C97.471 39.1432 96.7347 39.0924 96.1084 38.9908C95.4821 38.8977 94.9447 38.7793 94.4961 38.6354C94.056 38.4915 93.6921 38.2587 93.4043 37.9371C93.1165 37.6071 92.888 37.2939 92.7188 36.9977C92.5579 36.7015 92.4395 36.2656 92.3633 35.6901C92.2871 35.1145 92.2363 34.594 92.2109 34.1285C92.194 33.6546 92.1855 33.0029 92.1855 32.1735C92.1855 31.0055 92.1982 30.0957 92.2236 29.444C92.2575 28.7923 92.3421 28.1406 92.4775 27.4889C92.613 26.8287 92.7949 26.3505 93.0234 26.0543C93.252 25.7581 93.5905 25.483 94.0391 25.2291C94.4876 24.9752 95.0166 24.8144 95.626 24.7467C96.2354 24.6705 97.0098 24.6324 97.9492 24.6324C98.6009 24.6324 99.1637 24.6536 99.6377 24.6959C100.112 24.7298 100.548 24.8059 100.945 24.9244C101.343 25.0429 101.669 25.1783 101.923 25.3307C102.185 25.483 102.414 25.7073 102.608 26.0035C102.812 26.2998 102.964 26.6087 103.065 26.9303C103.175 27.2434 103.264 27.6624 103.332 28.1871C103.4 28.7119 103.442 29.2451 103.459 29.7867C103.476 30.3199 103.484 30.9886 103.484 31.7926ZM94.6865 30.6373H100.983C100.966 29.554 100.924 28.5638 100.856 27.6666C100.823 27.1503 100.598 26.8076 100.184 26.6383C99.7773 26.4606 99.0283 26.3717 97.9365 26.3717C96.7262 26.3717 95.9603 26.4394 95.6387 26.5748C95.4948 26.6171 95.3678 26.6933 95.2578 26.8033C95.1562 26.9049 95.0716 27.053 95.0039 27.2477C94.9362 27.4423 94.8812 27.6243 94.8389 27.7936C94.805 27.9628 94.7754 28.1998 94.75 28.5045C94.7331 28.8007 94.7204 29.0335 94.7119 29.2028C94.7035 29.3636 94.695 29.6132 94.6865 29.9518C94.6865 30.2903 94.6865 30.5188 94.6865 30.6373ZM113.095 24.7086L112.993 26.8287C112.672 26.7864 112.367 26.7653 112.079 26.7653C111.478 26.7653 110.992 26.8245 110.619 26.943C110.247 27.0615 109.963 27.2646 109.769 27.5524C109.582 27.8401 109.455 28.1702 109.388 28.5426C109.328 28.9065 109.299 29.3974 109.299 30.0153C109.299 30.3623 109.312 30.8701 109.337 31.5387C109.371 32.2073 109.388 32.6855 109.388 32.9733V38.9528H106.887V25.026H109.159L109.413 26.5875C109.675 25.9781 110.073 25.5084 110.606 25.1783C111.14 24.8398 111.779 24.6705 112.523 24.6705C112.71 24.6705 112.9 24.6832 113.095 24.7086ZM126.742 25.026L122.35 38.2799C122.24 38.6015 122.121 38.9866 121.994 39.4352C121.876 39.8922 121.774 40.2604 121.689 40.5397C121.613 40.819 121.512 41.1237 121.385 41.4537C121.266 41.7923 121.135 42.0589 120.991 42.2535C120.847 42.4567 120.67 42.6471 120.458 42.8248C120.246 43.011 119.993 43.1422 119.696 43.2184C119.4 43.303 119.057 43.3453 118.668 43.3453C117.661 43.3453 116.747 43.248 115.926 43.0533L116.307 41.1237C116.467 41.1406 116.683 41.1702 116.954 41.2125C117.225 41.2633 117.458 41.3014 117.652 41.3268C117.855 41.3522 118.042 41.3649 118.211 41.3649C118.753 41.3649 119.163 41.1787 119.442 40.8063C119.722 40.4339 119.866 39.7441 119.874 38.7369L114.656 25.026H117.183L119.747 32.0973C120.213 33.3837 120.644 34.5983 121.042 35.7408C121.321 34.7168 121.732 33.3033 122.273 31.5006L124.19 25.026H126.742Z" fill="black"/>
</svg>
