<svg width="200" height="60" viewBox="0 0 200 60" fill="none" xmlns="http://www.w3.org/2000/svg">
<path d="M65.7168 38H63.1396V29.3164H54.6846V38H52.1074V19.084H54.6846V27.3105H63.1396V19.084H65.7168V38ZM75.2764 36.4385C76.4782 36.4131 77.3118 36.3242 77.7773 36.1719C78.2513 36.0195 78.4883 35.7191 78.4883 35.2705C78.5814 34.0602 78.6279 32.6595 78.6279 31.0684C78.6279 30.5436 78.6068 29.7946 78.5645 28.8213C78.5221 27.8395 78.501 27.1117 78.501 26.6377C78.501 26.4938 78.4756 26.3626 78.4248 26.2441C78.3825 26.1257 78.3063 26.0283 78.1963 25.9521C78.0947 25.8675 77.9889 25.7956 77.8789 25.7363C77.7773 25.6771 77.6292 25.6305 77.4346 25.5967C77.2484 25.5628 77.0876 25.5332 76.9521 25.5078C76.8252 25.4824 76.639 25.4655 76.3936 25.457C76.1566 25.4486 75.9704 25.4443 75.835 25.4443C75.708 25.4443 75.5176 25.4443 75.2637 25.4443C75.0098 25.4443 74.8151 25.4443 74.6797 25.4443C74.5527 25.4443 74.3665 25.4486 74.1211 25.457C73.8841 25.4655 73.6979 25.4824 73.5625 25.5078C73.4355 25.5332 73.2747 25.5628 73.0801 25.5967C72.8939 25.6305 72.7458 25.6771 72.6357 25.7363C72.5342 25.7956 72.4284 25.8675 72.3184 25.9521C72.2168 26.0283 72.1406 26.1257 72.0898 26.2441C72.0475 26.3626 72.0264 26.4938 72.0264 26.6377C72.0264 27.1117 72.0052 27.8395 71.9629 28.8213C71.9206 29.7946 71.8994 30.5436 71.8994 31.0684C71.8994 32.6595 71.946 34.0602 72.0391 35.2705C72.0391 35.7191 72.2845 36.028 72.7754 36.1973C73.2747 36.3581 74.1084 36.4385 75.2764 36.4385ZM75.251 38.1904C74.3115 38.1904 73.5286 38.1523 72.9023 38.0762C72.276 38 71.7344 37.835 71.2773 37.5811C70.8288 37.3187 70.486 37.0436 70.249 36.7559C70.012 36.4596 69.8258 35.9984 69.6904 35.3721C69.555 34.7373 69.4704 34.111 69.4365 33.4932C69.4111 32.8753 69.3984 32.0163 69.3984 30.916C69.3984 30.0951 69.4069 29.4095 69.4238 28.8594C69.4492 28.3092 69.5 27.7718 69.5762 27.2471C69.6523 26.7139 69.7454 26.2865 69.8555 25.9648C69.974 25.6348 70.139 25.3258 70.3506 25.0381C70.5706 24.7419 70.8161 24.5176 71.0869 24.3652C71.3577 24.2129 71.7005 24.0817 72.1152 23.9717C72.5384 23.8532 72.9954 23.777 73.4863 23.7432C73.9857 23.7008 74.5781 23.6797 75.2637 23.6797C75.9492 23.6797 76.5374 23.7008 77.0283 23.7432C77.5277 23.777 77.9847 23.8532 78.3994 23.9717C78.8226 24.0817 79.1696 24.2129 79.4404 24.3652C79.7113 24.5176 79.9525 24.7419 80.1641 25.0381C80.3841 25.3258 80.5492 25.6348 80.6592 25.9648C80.7777 26.2865 80.875 26.7139 80.9512 27.2471C81.0273 27.7718 81.0739 28.3092 81.0908 28.8594C81.1162 29.4095 81.1289 30.0951 81.1289 30.916C81.1289 32.0163 81.112 32.8753 81.0781 33.4932C81.0527 34.111 80.9723 34.7373 80.8369 35.3721C80.7015 35.9984 80.5111 36.4596 80.2656 36.7559C80.0286 37.0521 79.6816 37.3271 79.2246 37.5811C78.776 37.835 78.2386 38 77.6123 38.0762C76.986 38.1523 76.1989 38.1904 75.251 38.1904ZM103.13 38H100.629V29.5449C100.629 28.5885 100.642 27.8607 100.667 27.3613C100.667 27.0566 100.646 26.8112 100.604 26.625C100.561 26.4303 100.468 26.2314 100.324 26.0283C100.18 25.8252 99.9434 25.6771 99.6133 25.584C99.2832 25.4824 98.86 25.4316 98.3438 25.4316C97.7767 25.4316 97.2985 25.4697 96.9092 25.5459C96.5283 25.6136 96.2194 25.7109 95.9824 25.8379C95.7539 25.9564 95.5762 26.1299 95.4492 26.3584C95.3223 26.5869 95.2376 26.8281 95.1953 27.082C95.1615 27.3275 95.1445 27.6491 95.1445 28.0469C95.1445 28.2331 95.1488 28.5674 95.1572 29.0498C95.1742 29.5238 95.1826 29.9089 95.1826 30.2051V38H92.6816V29.0879C92.6816 29.0456 92.6816 28.9863 92.6816 28.9102C92.6816 28.3346 92.6774 27.9242 92.6689 27.6787C92.6605 27.4248 92.6266 27.1328 92.5674 26.8027C92.5166 26.4642 92.4362 26.2357 92.3262 26.1172C92.2246 25.9987 92.0638 25.8717 91.8438 25.7363C91.6237 25.6009 91.3571 25.5163 91.0439 25.4824C90.7308 25.4486 90.333 25.4316 89.8506 25.4316C89.5459 25.4316 89.2539 25.4528 88.9746 25.4951C88.7038 25.529 88.4414 25.5882 88.1875 25.6729C87.9336 25.7575 87.7262 25.8802 87.5654 26.041C87.4046 26.2018 87.32 26.3923 87.3115 26.6123C87.2015 27.738 87.1465 28.9736 87.1465 30.3193V38H84.6455V24.0732H86.9307L87.1719 25.5967C87.5104 24.9111 87.9971 24.4245 88.6318 24.1367C89.2666 23.849 90.0706 23.7051 91.0439 23.7051C92.0003 23.7051 92.762 23.8574 93.3291 24.1621C93.8962 24.4668 94.3109 24.9661 94.5732 25.6602C95.2503 24.3398 96.5876 23.6797 98.585 23.6797C99.2367 23.6797 99.791 23.7178 100.248 23.7939C100.714 23.8617 101.12 23.9928 101.467 24.1875C101.814 24.3822 102.089 24.6149 102.292 24.8857C102.504 25.1566 102.673 25.5205 102.8 25.9775C102.927 26.4261 103.011 26.9212 103.054 27.4629C103.104 28.0046 103.13 28.6689 103.13 29.4561V38ZM117.92 30.8398C116.904 30.9414 116.274 31.0007 116.028 31.0176H109.109C109.118 32.2448 109.152 33.5905 109.211 35.0547C109.253 35.6217 109.494 35.9984 109.935 36.1846C110.383 36.3623 111.251 36.4512 112.537 36.4512C113.02 36.4512 113.434 36.4342 113.781 36.4004C114.128 36.3581 114.408 36.2904 114.619 36.1973C114.839 36.0957 115.008 36.0026 115.127 35.918C115.254 35.8249 115.347 35.6852 115.406 35.499C115.465 35.3044 115.504 35.1436 115.521 35.0166C115.537 34.8812 115.554 34.6823 115.571 34.4199C115.588 34.1491 115.609 33.929 115.635 33.7598L117.577 34.1152C117.56 34.7077 117.518 35.2113 117.45 35.626C117.382 36.0322 117.268 36.3919 117.107 36.7051C116.947 37.0182 116.756 37.2679 116.536 37.4541C116.316 37.6318 116.02 37.7799 115.647 37.8984C115.275 38.0169 114.865 38.0931 114.416 38.127C113.967 38.1693 113.413 38.1904 112.753 38.1904C111.907 38.1904 111.17 38.1396 110.544 38.0381C109.918 37.945 109.38 37.8265 108.932 37.6826C108.492 37.5387 108.128 37.306 107.84 36.9844C107.552 36.6543 107.324 36.3411 107.154 36.0449C106.993 35.7487 106.875 35.3128 106.799 34.7373C106.723 34.1618 106.672 33.6413 106.646 33.1758C106.63 32.7018 106.621 32.0501 106.621 31.2207C106.621 30.0527 106.634 29.1429 106.659 28.4912C106.693 27.8395 106.778 27.1878 106.913 26.5361C107.049 25.876 107.23 25.3978 107.459 25.1016C107.688 24.8053 108.026 24.5303 108.475 24.2764C108.923 24.0225 109.452 23.8617 110.062 23.7939C110.671 23.7178 111.445 23.6797 112.385 23.6797C113.036 23.6797 113.599 23.7008 114.073 23.7432C114.547 23.777 114.983 23.8532 115.381 23.9717C115.779 24.0902 116.104 24.2256 116.358 24.3779C116.621 24.5303 116.849 24.7546 117.044 25.0508C117.247 25.347 117.399 25.6559 117.501 25.9775C117.611 26.2907 117.7 26.7096 117.768 27.2344C117.835 27.7591 117.878 28.2923 117.895 28.834C117.911 29.3672 117.92 30.0358 117.92 30.8398ZM109.122 29.6846H115.419C115.402 28.6012 115.36 27.611 115.292 26.7139C115.258 26.1976 115.034 25.8548 114.619 25.6855C114.213 25.5078 113.464 25.4189 112.372 25.4189C111.162 25.4189 110.396 25.4867 110.074 25.6221C109.93 25.6644 109.803 25.7406 109.693 25.8506C109.592 25.9521 109.507 26.1003 109.439 26.2949C109.372 26.4896 109.317 26.6715 109.274 26.8408C109.241 27.0101 109.211 27.2471 109.186 27.5518C109.169 27.848 109.156 28.0807 109.147 28.25C109.139 28.4108 109.131 28.6605 109.122 28.999C109.122 29.3376 109.122 29.5661 109.122 29.6846Z" fill="black"/>
<path fill-rule="evenodd" clip-rule="evenodd" d="M12.2821 18.6417C12.7649 18.2276 13.38 18 14.016 18C14.6521 18 15.2672 18.2276 15.75 18.6417L24.1881 25.8732L27.5002 28.5234C27.6368 28.6327 27.7505 28.7679 27.8349 28.9211C27.9192 29.0744 27.9726 29.2428 27.9919 29.4166C28.0112 29.5905 27.996 29.7665 27.9473 29.9345C27.8986 30.1025 27.8173 30.2593 27.708 30.3959C27.5986 30.5325 27.4635 30.6462 27.3103 30.7306C27.157 30.8149 26.9886 30.8683 26.8147 30.8876C26.6409 30.9069 26.4649 30.8917 26.2969 30.843C26.1289 30.7943 25.9721 30.713 25.8355 30.6037L24.6702 29.6714V40.2177C24.6702 40.9241 24.3896 41.6016 23.8901 42.1011C23.3905 42.6006 22.7131 42.8812 22.0066 42.8812H16.6796V36.2224C16.6796 35.516 16.3989 34.8385 15.8994 34.339C15.3999 33.8395 14.7224 33.5589 14.016 33.5589C13.3096 33.5589 12.6321 33.8395 12.1326 34.339C11.6331 34.8385 11.3525 35.516 11.3525 36.2224V42.8812H6.02541C5.319 42.8812 4.64152 42.6006 4.14201 42.1011C3.6425 41.6016 3.36188 40.9241 3.36188 40.2177V29.6701L2.19658 30.6023C2.06092 30.7182 1.90336 30.8056 1.73327 30.8594C1.56318 30.9131 1.38402 30.9322 1.20642 30.9154C1.02882 30.8986 0.856407 30.8463 0.699409 30.7616C0.542412 30.6769 0.404031 30.5615 0.292483 30.4223C0.180934 30.2831 0.0984907 30.1229 0.0500466 29.9512C0.00160249 29.7795 -0.011855 29.5999 0.0104727 29.4229C0.0328004 29.2459 0.0904583 29.0752 0.180024 28.9209C0.26959 28.7666 0.389237 28.6319 0.531865 28.5248L3.84398 25.8745L12.2821 18.6417Z" fill="black"/>
</svg>
