<svg width="196" height="60" viewBox="0 0 196 60" fill="none" xmlns="http://www.w3.org/2000/svg">
<path d="M47.4346 38L48.374 18.9697H51.167L56.626 33.8613L61.9834 18.9697H64.7764L65.7793 38H63.2656L62.6055 22.7529L57.3496 38H55.877L50.3672 22.8672L49.8086 38H47.4346ZM79.9219 24.0732L75.5293 37.3271C75.4193 37.6488 75.3008 38.0339 75.1738 38.4824C75.0553 38.9395 74.9538 39.3076 74.8691 39.5869C74.793 39.8662 74.6914 40.1709 74.5645 40.501C74.446 40.8395 74.3148 41.1061 74.1709 41.3008C74.027 41.5039 73.8493 41.6943 73.6377 41.8721C73.4261 42.0583 73.1722 42.1895 72.876 42.2656C72.5798 42.3503 72.237 42.3926 71.8477 42.3926C70.8405 42.3926 69.9264 42.2952 69.1055 42.1006L69.4863 40.1709C69.6471 40.1878 69.863 40.2174 70.1338 40.2598C70.4046 40.3105 70.6374 40.3486 70.832 40.374C71.0352 40.3994 71.2214 40.4121 71.3906 40.4121C71.9323 40.4121 72.3428 40.2259 72.6221 39.8535C72.9014 39.4811 73.0452 38.7913 73.0537 37.7842L67.8359 24.0732H70.3623L72.9268 31.1445C73.3923 32.431 73.8239 33.6455 74.2217 34.7881C74.501 33.764 74.9115 32.3506 75.4531 30.5479L77.3701 24.0732H79.9219ZM100.361 25.2539C100.361 26.0241 100.319 26.7096 100.234 27.3105C100.15 27.9115 100.035 28.4277 99.8916 28.8594C99.7562 29.2826 99.5658 29.6465 99.3203 29.9512C99.0833 30.2559 98.8294 30.5013 98.5586 30.6875C98.2962 30.8737 97.9746 31.0218 97.5938 31.1318C97.2214 31.2334 96.849 31.3011 96.4766 31.335C96.1126 31.3688 95.6852 31.3857 95.1943 31.3857H90.1543V38H87.5898V19.084H94.4453C95.2324 19.084 95.8968 19.1178 96.4385 19.1855C96.9886 19.2448 97.4964 19.359 97.9619 19.5283C98.4274 19.6976 98.7998 19.9261 99.0791 20.2139C99.3584 20.5016 99.5996 20.8783 99.8027 21.3438C100.006 21.8092 100.146 22.3594 100.222 22.9941C100.306 23.6204 100.353 24.3737 100.361 25.2539ZM97.7969 25.1143C97.7884 24.5049 97.7715 24.0098 97.7461 23.6289C97.7207 23.248 97.6699 22.8883 97.5938 22.5498C97.526 22.2113 97.4329 21.9531 97.3145 21.7754C97.2044 21.5977 97.0479 21.4453 96.8447 21.3184C96.6501 21.1829 96.4173 21.0941 96.1465 21.0518C95.8841 21.0094 95.554 20.9883 95.1562 20.9883H90.1543V29.4688H94.6357C95.2959 29.4688 95.8333 29.4137 96.248 29.3037C96.6628 29.1937 96.9844 29.0117 97.2129 28.7578C97.4499 28.4954 97.6064 28.1908 97.6826 27.8438C97.7673 27.4967 97.8096 27.0482 97.8096 26.498C97.8096 26.3626 97.8053 26.1426 97.7969 25.8379C97.7969 25.5332 97.7969 25.292 97.7969 25.1143ZM108.677 36.4385C109.879 36.4131 110.712 36.3242 111.178 36.1719C111.652 36.0195 111.889 35.7191 111.889 35.2705C111.982 34.0602 112.028 32.6595 112.028 31.0684C112.028 30.5436 112.007 29.7946 111.965 28.8213C111.923 27.8395 111.901 27.1117 111.901 26.6377C111.901 26.4938 111.876 26.3626 111.825 26.2441C111.783 26.1257 111.707 26.0283 111.597 25.9521C111.495 25.8675 111.389 25.7956 111.279 25.7363C111.178 25.6771 111.03 25.6305 110.835 25.5967C110.649 25.5628 110.488 25.5332 110.353 25.5078C110.226 25.4824 110.039 25.4655 109.794 25.457C109.557 25.4486 109.371 25.4443 109.235 25.4443C109.108 25.4443 108.918 25.4443 108.664 25.4443C108.41 25.4443 108.215 25.4443 108.08 25.4443C107.953 25.4443 107.767 25.4486 107.521 25.457C107.285 25.4655 107.098 25.4824 106.963 25.5078C106.836 25.5332 106.675 25.5628 106.48 25.5967C106.294 25.6305 106.146 25.6771 106.036 25.7363C105.935 25.7956 105.829 25.8675 105.719 25.9521C105.617 26.0283 105.541 26.1257 105.49 26.2441C105.448 26.3626 105.427 26.4938 105.427 26.6377C105.427 27.1117 105.406 27.8395 105.363 28.8213C105.321 29.7946 105.3 30.5436 105.3 31.0684C105.3 32.6595 105.346 34.0602 105.439 35.2705C105.439 35.7191 105.685 36.028 106.176 36.1973C106.675 36.3581 107.509 36.4385 108.677 36.4385ZM108.651 38.1904C107.712 38.1904 106.929 38.1523 106.303 38.0762C105.676 38 105.135 37.835 104.678 37.5811C104.229 37.3187 103.886 37.0436 103.649 36.7559C103.412 36.4596 103.226 35.9984 103.091 35.3721C102.955 34.7373 102.871 34.111 102.837 33.4932C102.812 32.8753 102.799 32.0163 102.799 30.916C102.799 30.0951 102.807 29.4095 102.824 28.8594C102.85 28.3092 102.9 27.7718 102.977 27.2471C103.053 26.7139 103.146 26.2865 103.256 25.9648C103.374 25.6348 103.539 25.3258 103.751 25.0381C103.971 24.7419 104.216 24.5176 104.487 24.3652C104.758 24.2129 105.101 24.0817 105.516 23.9717C105.939 23.8532 106.396 23.777 106.887 23.7432C107.386 23.7008 107.979 23.6797 108.664 23.6797C109.35 23.6797 109.938 23.7008 110.429 23.7432C110.928 23.777 111.385 23.8532 111.8 23.9717C112.223 24.0817 112.57 24.2129 112.841 24.3652C113.112 24.5176 113.353 24.7419 113.564 25.0381C113.785 25.3258 113.95 25.6348 114.06 25.9648C114.178 26.2865 114.275 26.7139 114.352 27.2471C114.428 27.7718 114.474 28.3092 114.491 28.8594C114.517 29.4095 114.529 30.0951 114.529 30.916C114.529 32.0163 114.512 32.8753 114.479 33.4932C114.453 34.111 114.373 34.7373 114.237 35.3721C114.102 35.9984 113.911 36.4596 113.666 36.7559C113.429 37.0521 113.082 37.3271 112.625 37.5811C112.176 37.835 111.639 38 111.013 38.0762C110.386 38.1523 109.599 38.1904 108.651 38.1904ZM124.267 23.7559L124.165 25.876C123.843 25.8337 123.539 25.8125 123.251 25.8125C122.65 25.8125 122.163 25.8717 121.791 25.9902C121.419 26.1087 121.135 26.3118 120.94 26.5996C120.754 26.8874 120.627 27.2174 120.56 27.5898C120.5 27.9538 120.471 28.4447 120.471 29.0625C120.471 29.4095 120.483 29.9173 120.509 30.5859C120.543 31.2546 120.56 31.7327 120.56 32.0205V38H118.059V24.0732H120.331L120.585 25.6348C120.847 25.0254 121.245 24.5557 121.778 24.2256C122.312 23.887 122.951 23.7178 123.695 23.7178C123.882 23.7178 124.072 23.7305 124.267 23.7559ZM132.671 36.2354L132.62 38.0127C131.909 38.1312 131.266 38.1904 130.69 38.1904C130.073 38.1904 129.561 38.1227 129.154 37.9873C128.757 37.8519 128.456 37.6361 128.253 37.3398C128.05 37.0436 127.91 36.7178 127.834 36.3623C127.758 35.9984 127.72 35.5371 127.72 34.9785V25.4951H125.828V24.0732H127.72V20.1123L130.208 19.9092V24.0732H132.772V25.4951H130.208V34.1279C130.208 35.042 130.25 35.6344 130.335 35.9053C130.428 36.1761 130.674 36.3115 131.071 36.3115C131.461 36.3115 131.994 36.2861 132.671 36.2354ZM141.532 18.8936V20.709C141.075 20.6836 140.635 20.6709 140.212 20.6709C139.687 20.6709 139.37 20.6963 139.26 20.7471C139.074 20.8402 138.968 21.1237 138.942 21.5977C138.934 21.7754 138.93 22.0166 138.93 22.3213C138.93 22.4482 138.93 22.7064 138.93 23.0957C138.938 23.4766 138.942 23.8024 138.942 24.0732H141.456V25.5078H138.942V38H136.441V25.5078H134.804V24.0732H136.441C136.441 23.6077 136.441 23.2311 136.441 22.9434C136.45 22.6471 136.463 22.3213 136.479 21.9658C136.496 21.6104 136.518 21.3268 136.543 21.1152C136.568 20.9036 136.606 20.6751 136.657 20.4297C136.716 20.1842 136.78 19.9938 136.848 19.8584C136.924 19.7145 137.017 19.5664 137.127 19.4141C137.237 19.2617 137.36 19.1475 137.495 19.0713C137.639 18.9951 137.804 18.9232 137.99 18.8555C138.176 18.7878 138.38 18.7412 138.6 18.7158C138.828 18.6904 139.086 18.6777 139.374 18.6777C140.06 18.6777 140.779 18.7497 141.532 18.8936ZM149.505 36.4385C150.707 36.4131 151.54 36.3242 152.006 36.1719C152.48 36.0195 152.717 35.7191 152.717 35.2705C152.81 34.0602 152.856 32.6595 152.856 31.0684C152.856 30.5436 152.835 29.7946 152.793 28.8213C152.751 27.8395 152.729 27.1117 152.729 26.6377C152.729 26.4938 152.704 26.3626 152.653 26.2441C152.611 26.1257 152.535 26.0283 152.425 25.9521C152.323 25.8675 152.217 25.7956 152.107 25.7363C152.006 25.6771 151.858 25.6305 151.663 25.5967C151.477 25.5628 151.316 25.5332 151.181 25.5078C151.054 25.4824 150.868 25.4655 150.622 25.457C150.385 25.4486 150.199 25.4443 150.063 25.4443C149.937 25.4443 149.746 25.4443 149.492 25.4443C149.238 25.4443 149.044 25.4443 148.908 25.4443C148.781 25.4443 148.595 25.4486 148.35 25.457C148.113 25.4655 147.926 25.4824 147.791 25.5078C147.664 25.5332 147.503 25.5628 147.309 25.5967C147.122 25.6305 146.974 25.6771 146.864 25.7363C146.763 25.7956 146.657 25.8675 146.547 25.9521C146.445 26.0283 146.369 26.1257 146.318 26.2441C146.276 26.3626 146.255 26.4938 146.255 26.6377C146.255 27.1117 146.234 27.8395 146.191 28.8213C146.149 29.7946 146.128 30.5436 146.128 31.0684C146.128 32.6595 146.174 34.0602 146.268 35.2705C146.268 35.7191 146.513 36.028 147.004 36.1973C147.503 36.3581 148.337 36.4385 149.505 36.4385ZM149.479 38.1904C148.54 38.1904 147.757 38.1523 147.131 38.0762C146.505 38 145.963 37.835 145.506 37.5811C145.057 37.3187 144.715 37.0436 144.478 36.7559C144.241 36.4596 144.054 35.9984 143.919 35.3721C143.784 34.7373 143.699 34.111 143.665 33.4932C143.64 32.8753 143.627 32.0163 143.627 30.916C143.627 30.0951 143.635 29.4095 143.652 28.8594C143.678 28.3092 143.729 27.7718 143.805 27.2471C143.881 26.7139 143.974 26.2865 144.084 25.9648C144.202 25.6348 144.368 25.3258 144.579 25.0381C144.799 24.7419 145.045 24.5176 145.315 24.3652C145.586 24.2129 145.929 24.0817 146.344 23.9717C146.767 23.8532 147.224 23.777 147.715 23.7432C148.214 23.7008 148.807 23.6797 149.492 23.6797C150.178 23.6797 150.766 23.7008 151.257 23.7432C151.756 23.777 152.213 23.8532 152.628 23.9717C153.051 24.0817 153.398 24.2129 153.669 24.3652C153.94 24.5176 154.181 24.7419 154.393 25.0381C154.613 25.3258 154.778 25.6348 154.888 25.9648C155.006 26.2865 155.104 26.7139 155.18 27.2471C155.256 27.7718 155.302 28.3092 155.319 28.8594C155.345 29.4095 155.357 30.0951 155.357 30.916C155.357 32.0163 155.34 32.8753 155.307 33.4932C155.281 34.111 155.201 34.7373 155.065 35.3721C154.93 35.9984 154.74 36.4596 154.494 36.7559C154.257 37.0521 153.91 37.3271 153.453 37.5811C153.005 37.835 152.467 38 151.841 38.0762C151.215 38.1523 150.427 38.1904 149.479 38.1904ZM161.489 38H158.988V19.1348L161.489 18.9316V38ZM168.078 38H165.577V24.0732H168.078V38ZM168.078 18.6904V20.8867H165.577V18.6904H168.078ZM177.612 36.4385C178.814 36.4131 179.648 36.3242 180.113 36.1719C180.587 36.0195 180.824 35.7191 180.824 35.2705C180.917 34.0602 180.964 32.6595 180.964 31.0684C180.964 30.5436 180.943 29.7946 180.9 28.8213C180.858 27.8395 180.837 27.1117 180.837 26.6377C180.837 26.4938 180.812 26.3626 180.761 26.2441C180.718 26.1257 180.642 26.0283 180.532 25.9521C180.431 25.8675 180.325 25.7956 180.215 25.7363C180.113 25.6771 179.965 25.6305 179.771 25.5967C179.584 25.5628 179.424 25.5332 179.288 25.5078C179.161 25.4824 178.975 25.4655 178.729 25.457C178.493 25.4486 178.306 25.4443 178.171 25.4443C178.044 25.4443 177.854 25.4443 177.6 25.4443C177.346 25.4443 177.151 25.4443 177.016 25.4443C176.889 25.4443 176.702 25.4486 176.457 25.457C176.22 25.4655 176.034 25.4824 175.898 25.5078C175.771 25.5332 175.611 25.5628 175.416 25.5967C175.23 25.6305 175.082 25.6771 174.972 25.7363C174.87 25.7956 174.764 25.8675 174.654 25.9521C174.553 26.0283 174.477 26.1257 174.426 26.2441C174.383 26.3626 174.362 26.4938 174.362 26.6377C174.362 27.1117 174.341 27.8395 174.299 28.8213C174.257 29.7946 174.235 30.5436 174.235 31.0684C174.235 32.6595 174.282 34.0602 174.375 35.2705C174.375 35.7191 174.62 36.028 175.111 36.1973C175.611 36.3581 176.444 36.4385 177.612 36.4385ZM177.587 38.1904C176.647 38.1904 175.865 38.1523 175.238 38.0762C174.612 38 174.07 37.835 173.613 37.5811C173.165 37.3187 172.822 37.0436 172.585 36.7559C172.348 36.4596 172.162 35.9984 172.026 35.3721C171.891 34.7373 171.806 34.111 171.772 33.4932C171.747 32.8753 171.734 32.0163 171.734 30.916C171.734 30.0951 171.743 29.4095 171.76 28.8594C171.785 28.3092 171.836 27.7718 171.912 27.2471C171.988 26.7139 172.081 26.2865 172.191 25.9648C172.31 25.6348 172.475 25.3258 172.687 25.0381C172.907 24.7419 173.152 24.5176 173.423 24.3652C173.694 24.2129 174.036 24.0817 174.451 23.9717C174.874 23.8532 175.331 23.777 175.822 23.7432C176.322 23.7008 176.914 23.6797 177.6 23.6797C178.285 23.6797 178.873 23.7008 179.364 23.7432C179.864 23.777 180.321 23.8532 180.735 23.9717C181.159 24.0817 181.506 24.2129 181.776 24.3652C182.047 24.5176 182.288 24.7419 182.5 25.0381C182.72 25.3258 182.885 25.6348 182.995 25.9648C183.114 26.2865 183.211 26.7139 183.287 27.2471C183.363 27.7718 183.41 28.3092 183.427 28.8594C183.452 29.4095 183.465 30.0951 183.465 30.916C183.465 32.0163 183.448 32.8753 183.414 33.4932C183.389 34.111 183.308 34.7373 183.173 35.3721C183.037 35.9984 182.847 36.4596 182.602 36.7559C182.365 37.0521 182.018 37.3271 181.561 37.5811C181.112 37.835 180.575 38 179.948 38.0762C179.322 38.1523 178.535 38.1904 177.587 38.1904Z" fill="black"/>
<path fill-rule="evenodd" clip-rule="evenodd" d="M12 14.5064C10.1175 14.506 8.2823 15.1644 6.75264 16.3888C5.22299 17.6132 4.0759 19.342 3.47281 21.3319C2.86972 23.3218 2.84099 25.4727 3.39066 27.4818C3.94033 29.4909 5.04073 31.257 6.537 32.5318C2.721 34.4366 0 38.288 0 42.9613C0 43.4053 0.158036 43.831 0.43934 44.1449C0.720645 44.4588 1.10218 44.6352 1.5 44.6352H22.5C22.8978 44.6352 23.2794 44.4588 23.5607 44.1449C23.842 43.831 24 43.4053 24 42.9613C24 38.288 21.279 34.4366 17.463 32.5318C18.9593 31.257 20.0597 29.4909 20.6093 27.4818C21.159 25.4727 21.1303 23.3218 20.5272 21.3319C19.9241 19.342 18.777 17.6132 17.2474 16.3888C15.7177 15.1644 13.8825 14.506 12 14.5064Z" fill="black"/>
</svg>
